<?xml version="1.0" encoding="UTF-8" standalone="no"?>
<!-- Generator: Adobe Illustrator 23.0.1, SVG Export Plug-In . SVG Version: 6.00 Build 0)  -->

<svg
   version="1.1"
   id="Layer_1"
   width="83.108765"
   height="83.108765"
   x="0px"
   y="0px"
   viewBox="0 0 83.108764 83.499998"
   xml:space="preserve"
   sodipodi:docname="beehub-logo.svg"
   inkscape:version="1.3 (0e150ed6c4, 2023-07-21)"
   xmlns:inkscape="http://www.inkscape.org/namespaces/inkscape"
   xmlns:sodipodi="http://sodipodi.sourceforge.net/DTD/sodipodi-0.dtd"
   xmlns="http://www.w3.org/2000/svg"
   xmlns:svg="http://www.w3.org/2000/svg"><defs
   id="defs27" /><sodipodi:namedview
   id="namedview27"
   pagecolor="#ffffff"
   bordercolor="#000000"
   borderopacity="0.25"
   inkscape:showpageshadow="2"
   inkscape:pageopacity="0.0"
   inkscape:pagecheckerboard="0"
   inkscape:deskcolor="#d1d1d1"
   inkscape:zoom="5.7901817"
   inkscape:cx="42.39936"
   inkscape:cy="38.772531"
   inkscape:window-width="1920"
   inkscape:window-height="1057"
   inkscape:window-x="-8"
   inkscape:window-y="-8"
   inkscape:window-maximized="1"
   inkscape:current-layer="Layer_1" />&#10;<style
   type="text/css"
   id="style1">&#10;	.st0{fill:#FFFFFF;}&#10;	.st1{fill:url(#SVGID_1_);}&#10;	.st2{fill:url(#SVGID_2_);}&#10;	.st3{fill-rule:evenodd;clip-rule:evenodd;fill:url(#SVGID_3_);}&#10;	.st4{fill:none;stroke:url(#SVGID_4_);stroke-width:1.5;stroke-miterlimit:10;}&#10;</style>&#10;<g
   id="g27"
   transform="translate(-13.211032,-0.04999924)">&#10;	&#10;	&#10;	<linearGradient
   id="SVGID_1_"
   gradientUnits="userSpaceOnUse"
   x1="54.348301"
   y1="39.3927"
   x2="54.348301"
   y2="57.499401">&#10;		<stop
   offset="5.319245e-02"
   style="stop-color:#A887F9"
   id="stop20" />&#10;		<stop
   offset="1"
   style="stop-color:#8224E3"
   id="stop21" />&#10;	</linearGradient>&#10;	<path
   class="st1"
   d="m 54.3,21.4 c -10.9,0 -19.7,8.8 -19.7,19.7 0,10.9 8.8,19.7 19.7,19.7 C 65.2,60.8 74,52 74,41.1 74,30.2 65.2,21.4 54.3,21.4 Z m 0,31.7 c -6.6,0 -12,-5.4 -12,-12 0,-6.6 5.4,-12 12,-12 6.6,0 12,5.4 12,12 0,6.6 -5.3,12 -12,12 z"
   id="path21"
   style="fill:url(#SVGID_1_)" />&#10;	<linearGradient
   id="SVGID_2_"
   gradientUnits="userSpaceOnUse"
   x1="42.368301"
   y1="41.0802"
   x2="66.3284"
   y2="41.0802">&#10;		<stop
   offset="4.078348e-02"
   style="stop-color:#A887F9"
   id="stop22" />&#10;		<stop
   offset="0.9883"
   style="stop-color:#8224E3"
   id="stop23" />&#10;	</linearGradient>&#10;	<path
   class="st2"
   d="m 54.3,29.1 c -6.6,0 -12,5.4 -12,12 0,6.6 5.4,12 12,12 6.6,0 12,-5.4 12,-12 0,-6.6 -5.3,-12 -12,-12 z m 0,20.1 c -4.5,0 -8.1,-3.6 -8.1,-8.1 0,-4.5 3.6,-8.1 8.1,-8.1 4.5,0 8.1,3.6 8.1,8.1 0,4.4 -3.6,8.1 -8.1,8.1 z"
   id="path23"
   style="fill:url(#SVGID_2_)" />&#10;	<linearGradient
   id="SVGID_3_"
   gradientUnits="userSpaceOnUse"
   x1="74.738602"
   y1="8.9253998"
   x2="82.507004"
   y2="8.9253998">&#10;		<stop
   offset="5.434346e-07"
   style="stop-color:#39B54A"
   id="stop24" />&#10;		<stop
   offset="1"
   style="stop-color:#D9E021"
   id="stop25" />&#10;	</linearGradient>&#10;	<circle
   class="st3"
   cx="78.599998"
   cy="8.8999996"
   r="3.9000001"
   id="circle25"
   style="fill:url(#SVGID_3_)" />&#10;	<linearGradient
   id="SVGID_4_"
   gradientUnits="userSpaceOnUse"
   x1="25.1609"
   y1="71.271698"
   x2="84.2043"
   y2="12.2283">&#10;		<stop
   offset="2.163083e-06"
   style="stop-color:#8224E3"
   id="stop26" />&#10;		<stop
   offset="1"
   style="stop-color:#A887F9;stop-opacity:0"
   id="stop27" />&#10;	</linearGradient>&#10;	<circle
   class="st4"
   cx="54.700001"
   cy="41.799999"
   r="41"
   id="circle27"
   style="stroke:url(#SVGID_4_)" />&#10;</g>&#10;</svg>
